<svg id="Livello_1" data-name="Livello 1" xmlns="http://www.w3.org/2000/svg" viewBox="0 0 66.493 66.49285"><defs><style>.cls-1{fill:#fff;}</style></defs><path class="cls-1" d="M1086.90921,515.3232h-59.8437a3.32465,3.32465,0,0,0-3.32467,3.32462v44.32865a3.32466,3.32466,0,0,0,3.32467,3.32463h20.37119l-3.32468,6.6493h-7.07258a1.10824,1.10824,0,0,0-1.10818,1.10817v6.6493a1.10821,1.10821,0,0,0,1.10818,1.10817h39.8958a1.10818,1.10818,0,0,0,1.10817-1.10817v-6.6493a1.10821,1.10821,0,0,0-1.10817-1.10817h-7.07259l-3.32462-6.6493h20.37118a3.32466,3.32466,0,0,0,3.32463-3.32463V518.64782A3.32465,3.32465,0,0,0,1086.90921,515.3232Zm-59.8437,2.21645h59.8437a1.10825,1.10825,0,0,1,1.10818,1.10817V519.756h-62.06005v-1.10818A1.10821,1.10821,0,0,1,1027.06551,517.53965Zm60.95188,37.67935h-62.06005V521.9725h62.06015V555.219Zm-12.19033,24.3807h-37.67945v-4.4328H1075.827v4.4328Zm-8.44246-6.6493h-20.79447l3.32463-6.6493h14.14531Zm19.52461-8.86565h-59.8437a1.10818,1.10818,0,0,1-1.10817-1.10818v-5.54112h62.06015v5.54112A1.10837,1.10837,0,0,1,1086.90921,564.08475Z" transform="translate(-1023.74084 -515.3232)"/><path class="cls-1" d="M1060.312,560.76012a3.32465,3.32465,0,1,0-3.32467,3.32463A3.32466,3.32466,0,0,0,1060.312,560.76012Zm-3.32467,1.10818a1.10818,1.10818,0,1,1,1.10817-1.10818A1.10826,1.10826,0,0,1,1056.98734,561.8683Z" transform="translate(-1023.74084 -515.3232)"/><path class="cls-1" d="M1083.58454,559.6518h2.2165v2.2165h-2.2165Z" transform="translate(-1023.74084 -515.3232)"/><path class="cls-1" d="M1079.15174,559.6518h2.21645v2.2165h-2.21645Z" transform="translate(-1023.74084 -515.3232)"/><path class="cls-1" d="M1030.39014,526.4053h3.32468V524.189h-5.54113v5.54112h2.21645Z" transform="translate(-1023.74084 -515.3232)"/><path class="cls-1" d="M1083.58454,529.73h2.2165v-5.541h-5.54113v2.2165h3.32463Z" transform="translate(-1023.74084 -515.3232)"/><path class="cls-1" d="M1083.58454,550.78615h-3.32463v2.2165h5.54113v-5.54113h-2.2165Z" transform="translate(-1023.74084 -515.3232)"/><path class="cls-1" d="M1033.71482,550.78615h-3.32468v-3.32463h-2.21645v5.54113h5.54113Z" transform="translate(-1023.74084 -515.3232)"/><path class="cls-1" d="M1056.98734,550.78615a12.19043,12.19043,0,1,0-12.19043-12.19043A12.19046,12.19046,0,0,0,1056.98734,550.78615Zm0-22.16435a9.974,9.974,0,1,1-9.97393,9.97392A9.974,9.974,0,0,1,1056.98734,528.6218Z" transform="translate(-1023.74084 -515.3232)"/><path class="cls-1" d="M1053.66271,546.3532h2.21645v-2.21645h2.2165v2.21645h2.21635v-2.21645a5.60508,5.60508,0,0,0,0-11.08215v-2.21645h-2.2165v2.21645h-2.21644v-2.21645h-2.21636v2.21645h-2.21649v2.2165h2.21649v6.6493h-2.21649v2.21645h2.21649Zm7.75748-9.97393a1.10826,1.10826,0,0,1-1.10818,1.10818h-4.43285V535.2711h4.43285A1.10822,1.10822,0,0,1,1061.42019,536.37927Zm-5.541,3.32463h4.43285a1.10825,1.10825,0,0,1,0,2.2165h-4.43285Z" transform="translate(-1023.74084 -515.3232)"/><path class="cls-1" d="M1079.15174,538.59572h2.21645v-2.21645h2.21635v-2.2165h-2.21645v-2.21635h-2.2165v2.2165h-2.21635v2.21645h2.2165Z" transform="translate(-1023.74084 -515.3232)"/><path class="cls-1" d="M1032.60664,537.48755v2.2165h2.21645v2.21635h2.21635v-2.2165h2.2165v-2.21645h-2.2165V535.2711H1034.823v2.21645Z" transform="translate(-1023.74084 -515.3232)"/><path class="cls-1" d="M1069.17776,547.46152V549.678h2.2165v2.21635h2.21635v-2.21645h2.21645v-2.2165h-2.21645V545.245h-2.2165v2.2165Z" transform="translate(-1023.74084 -515.3232)"/><path class="cls-1" d="M1041.47229,528.6218h2.21645v2.21645h-2.21645Z" transform="translate(-1023.74084 -515.3232)"/><path class="cls-1" d="M1040.36411,545.245h2.21645v2.2165h-2.21645Z" transform="translate(-1023.74084 -515.3232)"/><path class="cls-1" d="M1071.39411,528.6218h2.2165v2.21645h-2.2165Z" transform="translate(-1023.74084 -515.3232)"/><path class="cls-1" d="M1071.39411,538.59572h2.2165v2.2165h-2.2165Z" transform="translate(-1023.74084 -515.3232)"/></svg>