<svg id="Livello_1" data-name="Livello 1" xmlns="http://www.w3.org/2000/svg" viewBox="0 0 41.27789 30.47966"><defs><style>.cls-1{fill:none;stroke:#1a1a1a;stroke-linecap:round;stroke-linejoin:round;}</style></defs><path class="cls-1" d="M979.01067,547.39143c-.00876-.02927-.01715-.05847-.02789-.08747,0,0-1.06431-2.75685-1.6244-3.84281a2.323,2.323,0,0,0-.18216-.3091,1.10027,1.10027,0,0,0-1.26315-.35814,1.00794,1.00794,0,0,0-.63139.639,1.24157,1.24157,0,0,0-1.58964-.69727,1.26555,1.26555,0,0,1-2.31923.31,1.26363,1.26363,0,0,0-.83627,1.18313L968.997,540.073a1.20838,1.20838,0,1,0-2.2333.82734l2.6966,7.27919c-.32726-.40271-.62078-.75578-.83892-1.003-.77746-.88115-1.78079-1.228-2.36173-.86044-.86781.54922.37066,1.79207,1.064,2.83187.56943.854,1.71919,2.45393,2.05148,2.821a8.92689,8.92689,0,0,0,1.6226,1.47286,5.21235,5.21235,0,0,0,5.09928.61283,4.8424,4.8424,0,0,0,2.91766-6.66462Z" transform="translate(-938.65916 -524.46903)"/><path class="cls-1" d="M956.54917,551.54576a2.85537,2.85537,0,0,0-2.85537-2.85537H939.15916V524.969H953.6938a2.85537,2.85537,0,0,1,2.85537,2.85537v23.72136Z" transform="translate(-938.65916 -524.46903)"/><path class="cls-1" d="M973.93918,540.08892V524.969H959.40451a2.85536,2.85536,0,0,0-2.85534,2.85537v23.72136a2.85536,2.85536,0,0,1,2.85534-2.85537h3.94266" transform="translate(-938.65916 -524.46903)"/><line class="cls-1" x1="13.94962" y1="5.01092" x2="4.40084" y2="5.01092"/><line class="cls-1" x1="13.94962" y1="8.54715" x2="4.40084" y2="8.54715"/><line class="cls-1" x1="13.94962" y1="12.08338" x2="4.40084" y2="12.08338"/><line class="cls-1" x1="31.32866" y1="5.01092" x2="21.77988" y2="5.01092"/><line class="cls-1" x1="31.32866" y1="8.54715" x2="21.77988" y2="8.54715"/><line class="cls-1" x1="26.78206" y1="12.08338" x2="21.77988" y2="12.08338"/><line class="cls-1" x1="13.94962" y1="15.61965" x2="4.40084" y2="15.61965"/></svg>