<svg id="Livello_1" data-name="Livello 1" xmlns="http://www.w3.org/2000/svg" viewBox="0 0 79.5919 65"><defs><style>.cls-1{fill:#1a1a1a;}</style></defs><path class="cls-1" d="M1059.57138,537.71337a1.32574,1.32574,0,0,0-1.99381-1.52287l-6.65113,4.43323-4.66665-10.50072a1.32575,1.32575,0,0,0-2.42356,0l-4.66666,10.5006-6.65119-4.4333a1.32574,1.32574,0,0,0-1.99374,1.52294l.975,2.92481a31.2886,31.2886,0,0,1,1.61047,9.92128,1.32551,1.32551,0,0,0,1.32666,1.32667h21.22461a1.32547,1.32547,0,0,0,1.3266-1.32667,31.32853,31.32853,0,0,1,1.60925-9.92128Zm-5.21041,11.51949h-18.62465a33.92989,33.92989,0,0,0-1.483-8.69812l4.75309,3.169a1.32823,1.32823,0,0,0,1.94855-.56522l4.09356-9.21132,4.09374,9.21144a1.32839,1.32839,0,0,0,1.94861.56529l4.753-3.169A33.82,33.82,0,0,0,1054.361,549.23286Z" transform="translate(-1017.19139 -516.06962)"/><path class="cls-1" d="M1033.11,553.21249h23.87769v2.65308H1033.11Z" transform="translate(-1017.19139 -516.06962)"/><path class="cls-1" d="M1068.9261,525.35529a26.47462,26.47462,0,0,0-3.002.18835,27.84008,27.84008,0,1,0-20.87554,46.24031,28.12035,28.12035,0,0,0,2.98873-.16584,27.8504,27.8504,0,1,0,20.88884-46.26282Zm-5.17058,35.40267-2.81228-2.81234a21.11336,21.11336,0,0,0,5.26372-12.69232h3.97974a25.07148,25.07148,0,0,1-6.43118,15.50466Zm-18.707,1.74032a18.5714,18.5714,0,1,1,18.57134-18.57146A18.59169,18.59169,0,0,1,1045.04853,562.49828Zm27.06812-12.10466.90209,2.0309a1.32832,1.32832,0,0,0,1.94855.56528l4.75308-3.169a33.92712,33.92712,0,0,0-1.48293,8.69806h-9.50475a27.636,27.636,0,0,0,3.384-8.12522Zm-5.911-7.79347a21.10435,21.10435,0,0,0-5.26372-12.69232l2.81228-2.81234A25.06116,25.06116,0,0,1,1070.184,542.6h-3.97834Zm-7.13829-14.56786a21.11347,21.11347,0,0,0-12.69238-5.26372V518.789a25.06723,25.06723,0,0,1,15.50454,6.42973Zm-15.34516-5.26244a21.10426,21.10426,0,0,0-12.69233,5.26372l-2.81233-2.81228a25.05282,25.05282,0,0,1,15.50454-6.43088v3.97944Zm-14.56817,7.1381a21.11358,21.11358,0,0,0-5.26372,12.69239h-3.97944a25.06757,25.06757,0,0,1,6.42972-15.50448Zm-5.26244,15.34535a21.10429,21.10429,0,0,0,5.26372,12.69232L1026.343,560.758a25.0529,25.0529,0,0,1-6.43082-15.50454h3.97944Zm7.13828,14.56817a21.11341,21.11341,0,0,0,12.69233,5.26372v3.97974a25.06726,25.06726,0,0,1-15.50448-6.42972Zm15.34511,5.26213a21.10428,21.10428,0,0,0,12.69238-5.26372l2.81228,2.81228a25.06046,25.06046,0,0,1-15.50448,6.42978V565.0836Zm16.67213.06764h17.81808v-2.65308h-15.11193c.38871-.43251.76949-.87026,1.13148-1.32667h12.65366a1.3255,1.3255,0,0,0,1.32666-1.3266,31.3282,31.3282,0,0,1,1.60919-9.92128l.975-2.92487a1.32577,1.32577,0,0,0-1.99375-1.52294l-6.65119,4.43329-1.97643-4.44933c.02928-.51082.07814-1.01609.07814-1.53343a27.69722,27.69722,0,0,0-1.55747-9.10135,18.55548,18.55548,0,1,1-13.033,33.59178,27.86435,27.86435,0,0,0,4.73155-3.26552Zm7.20562,9.21833a21.10448,21.10448,0,0,0,12.69239-5.26371l2.81227,2.81228a25.06066,25.06066,0,0,1-15.50448,6.42978v-3.97835Zm14.568-7.13828a21.11336,21.11336,0,0,0,5.26372-12.69232h3.97974a25.06788,25.06788,0,0,1-6.42972,15.50448Zm5.26225-15.34516a21.09868,21.09868,0,0,0-5.29537-12.65909l2.8454-2.84521a25.06046,25.06046,0,0,1,6.42972,15.50448h-3.97975Zm-21.157-23.87769a25.07023,25.07023,0,0,1,16.831,6.49724l-2.84143,2.84143a21.107,21.107,0,0,0-12.69764-5.277,27.89265,27.89265,0,0,0-2.32024-4.03135c.35193-.01842.69673-.03037,1.02829-.03037Zm-17.75282,43.07512a27.55986,27.55986,0,0,0,4.43854-1.3943,21.169,21.169,0,0,0,11.98786,4.68672v4.00347A25.11226,25.11226,0,0,1,1051.17328,571.08356Z" transform="translate(-1017.19139 -516.06962)"/></svg>