<svg id="Livello_1" data-name="Livello 1" xmlns="http://www.w3.org/2000/svg" viewBox="0 0 64.40216 74.0215"><defs><style>.cls-1{fill:#1a1a1a;}</style></defs><path class="cls-1" d="M1088.65217,542.337a1.07051,1.07051,0,0,0,.53625-.92844V530.6277c0-.01843-.01276-.03333-.01382-.05152a1.04835,1.04835,0,0,0-.128-.47785l-.00691-.01214a1.05082,1.05082,0,0,0-.34964-.349c-.01551-.00991-.02177-.02868-.0379-.03789l-9.33633-5.39129a1.071,1.071,0,0,0-1.07253,0l-8.80169,5.08168-2.04459-1.18026V518.04689c0-.01843-.01276-.03317-.01383-.05152a1.0463,1.0463,0,0,0-.128-.47782l-.00691-.01218a1.04326,1.04326,0,0,0-.34964-.34889c-.01551-.01-.02181-.02881-.03794-.038l-9.33629-5.39128a1.07121,1.07121,0,0,0-1.07253,0l-9.338,5.39128c-.0153.00881-.02139.02663-.036.036a1.04405,1.04405,0,0,0-.35174.35112l-.00671.01193a1.04825,1.04825,0,0,0-.128.47782c-.00107.01823-.01383.03309-.01383.05152V528.2094l-2.04434,1.18026-8.80024-5.08168a1.07112,1.07112,0,0,0-1.07258,0l-9.338,5.39129c-.01485.0086-.02115.02608-.03539.03538a1.04418,1.04418,0,0,0-.35235.35174l-.00671.01194a1.04834,1.04834,0,0,0-.128.47785c-.00107.01819-.01383.03309-.01383.05152v10.78089a1.07051,1.07051,0,0,0,.53625.92844l4.13272,2.386v7.75248l-4.13272,2.3853c-.01526.00881-.02135.02658-.036.036a1.04339,1.04339,0,0,0-.35174.35108l-.00671.01193a1.04838,1.04838,0,0,0-.128.47786c-.00107.01818-.01383.03308-.01383.05151v10.78258a1.07057,1.07057,0,0,0,.53625.92844l9.338,5.3896c.01571.009.035.00543.05094.01362a.96772.96772,0,0,0,.97073,0c.01593-.00819.03519-.00461.05091-.01362l8.80649-5.08374,2.03809,1.17405v10.16238a1.07055,1.07055,0,0,0,.53629.92844l9.338,5.3896c.01567.009.035.00547.0509.01362a.96772.96772,0,0,0,.97073,0c.01593-.00815.03519-.00461.0509-.01362l9.33629-5.3896a1.07055,1.07055,0,0,0,.53629-.92844v-10.1623l2.0385-1.174,8.80778,5.08366c.01551.00889.03435.00543.05007.0135a.9702.9702,0,0,0,.97284-.00021c.01572-.00806.03436-.00448.04962-.01329l9.33633-5.3896a1.07057,1.07057,0,0,0,.53625-.92844V555.78928c0-.01843-.01276-.03333-.01382-.05151a1.04839,1.04839,0,0,0-.128-.47786l-.00691-.01214a1.04464,1.04464,0,0,0-.35025-.34964c-.01532-.00983-.02161-.02819-.03729-.03728l-4.13271-2.38571v-7.75166Zm-1.60887-1.54682-2.52384,1.45716v-3.53524a1.07256,1.07256,0,1,0-2.14512,0v4.77381l-2.52221,1.45625v-8.30531l7.19117-4.15189Zm-8.26371-14.31535,7.1922,4.15264-7.19388,4.153-7.19224-4.15292Zm-1.07257,10.16387v8.30333l-6.09872-3.52174,3.07545-1.77141a1.07279,1.07279,0,0,0-1.06921-1.8602l-3.10038,1.78577v-7.08929Zm-11.36327,5.3378-8.8193-5.0928a1.07114,1.07114,0,0,0-1.07253,0l-8.68334,5.01338-2.16294-1.246v-9.40455l2.04476-1.18048,8.80152,5.08149c.01567.009.035.00543.0509.01362a.968.968,0,0,0,.97073,0c.01593-.00819.03519-.00461.0509-.01362l8.79984-5.08149,2.04476,1.18048V540.81Zm2.0253,23.96782-2.04456,1.17763-8.8-5.08a1.07515,1.07515,0,0,0-1.07253,0l-8.80152,5.08-2.04476-1.178V556.3945l2.03974-1.17492,8.80654,5.08449c.01567.009.035.00547.0509.01362a.96772.96772,0,0,0,.97073,0c.01593-.00815.03519-.00461.0509-.01362l8.82411-5.0956,2.02049,1.16381Zm-19.64628-20.88361,7.19286,4.15284v8.30428l-6.12238-3.53537,3.06055-1.7628a1.07281,1.07281,0,0,0-1.0692-1.86025l-3.06183,1.76355Zm1.07151-1.85749,7.19389-4.1526,7.19244,4.1526-7.19244,4.153Zm12.43436,7.15619a1.07281,1.07281,0,0,0-1.0692,1.86025l3.04253,1.75243-6.14123,3.54582v-8.30449l7.19117-4.15251v7.03983Zm3.02327-23.38828-3.06014-1.7666a1.0722,1.0722,0,0,0-1.07257,1.85688l3.06079,1.76688-6.11925,3.53305v-8.30448l7.19117-4.15247Zm-8.26374-13.07707,7.19244,4.15259-7.19244,4.15305-7.19261-4.1523Zm-8.2654,6.01012,7.19286,4.1528v8.30449l-6.12094-3.53327,3.0608-1.76679a1.0722,1.0722,0,0,0-1.07258-1.85688l-3.06014,1.7666Zm-5.26225,19.51114-2.83221-1.63166a1.07279,1.07279,0,1,0-1.06921,1.8602l2.94657,1.69759-6.23632,3.60071V536.6377l7.19117-4.15251Zm-8.26374-12.94049,7.19244,4.15264-7.19244,4.153-7.19389-4.153Zm-8.2654,14.31366V532.485l7.19286,4.15283v8.30424l-2.52389-1.45736v-4.77089a1.07256,1.07256,0,1,0-2.14512,0v3.53212Zm4.669,5.173,3.06014,1.7668c.01571.009.035.00547.05094.01362a.96772.96772,0,0,0,.97073,0c.01593-.00815.03519-.00461.05091-.01362l8.919-5.15028,1.92559,1.10932v9.67115l-2.05776,1.18517-8.78682-5.07243a1.0752,1.0752,0,0,0-1.07258,0l-3.06014,1.76626Zm2.52389,24.14233-7.19286-4.15206v-8.30522l7.19286,4.1528Zm1.07254-10.16177-7.1922-4.15218,7.1922-4.15177,7.191,4.15177Zm1.07257,10.16169v-8.30449l7.19117-4.15251v7.06139l-3.06013-1.76289a1.0728,1.0728,0,1,0-1.06921,1.86021l3.06076,1.76334Zm19.64628,12.57085-7.19286-4.1521v-8.30345l7.19286,4.16049Zm1.07254-10.15172-7.19389-4.16132,7.19389-4.15272,7.19265,4.15272Zm8.26374,5.99962-7.19117,4.152v-8.29494l7.19117-4.16037Zm6.33145-11.9535,3.06183-1.76354a1.0728,1.0728,0,1,0-1.0692-1.86021l-3.06183,1.76355v-7.062l7.19137,4.1526.00128,8.30428Zm15.45994-.61723-7.19137,4.15206-.00128-8.30457,7.19265-4.15271Zm-8.26539-6.00971-7.191-4.15205,7.19265-4.1519,7.19077,4.15177Zm3.59643-8.70531-3.0585-1.76552a1.0751,1.0751,0,0,0-1.07253,0l-8.76922,5.06132-2.07706-1.19624V543.846l2.06323-1.1885,8.78305,5.07087c.01695.00983.03748.006.05509.01477a1.04652,1.04652,0,0,0,.45585.12254c.00876.00021.01675.00683.02534.00683.00877,0,.01655-.00662.02535-.00683a1.0465,1.0465,0,0,0,.45581-.12254c.01761-.00881.03814-.00494.05509-.01477l3.0585-1.76614Z" transform="translate(-1024.78626 -511.58327)"/></svg>