<svg id="Livello_1" data-name="Livello 1" xmlns="http://www.w3.org/2000/svg" viewBox="0 0 73.67541 67.48375"><defs><style>.cls-1{fill:none;stroke:#fff;stroke-miterlimit:10;stroke-width:2.48375px;}</style></defs><line class="cls-1" x1="19.81361" y1="33.74087" x2="16.71832" y2="33.74087"/><line class="cls-1" x1="44.57593" y1="33.74087" x2="41.48064" y2="33.74087"/><line class="cls-1" x1="50.76651" y1="33.74087" x2="47.67122" y2="33.74087"/><line class="cls-1" x1="33.74242" y1="16.71677" x2="30.64713" y2="16.71677"/><line class="cls-1" x1="27.55184" y1="16.71677" x2="24.45655" y2="16.71677"/><line class="cls-1" x1="21.36126" y1="16.71677" x2="18.26597" y2="16.71677"/><path class="cls-1" d="M1056.98734,548.56877a6.19058,6.19058,0,1,1-6.19058-6.191A6.19062,6.19062,0,0,1,1056.98734,548.56877Z" transform="translate(-1020.14964 -514.82775)"/><path class="cls-1" d="M1083.2973,533.09294a4.64294,4.64294,0,1,0,4.64294-4.64278A4.64268,4.64268,0,0,0,1083.2973,533.09294Z" transform="translate(-1020.14964 -514.82775)"/><path class="cls-1" d="M1083.2973,548.56939a4.64294,4.64294,0,1,0,4.64294-4.64278A4.64268,4.64268,0,0,0,1083.2973,548.56939Z" transform="translate(-1020.14964 -514.82775)"/><path class="cls-1" d="M1069.36835,520.71225a4.64293,4.64293,0,1,0,4.64293-4.64263A4.64268,4.64268,0,0,0,1069.36835,520.71225Z" transform="translate(-1020.14964 -514.82775)"/><path class="cls-1" d="M1087.94024,559.40368a4.6427,4.6427,0,1,1-4.64294,4.64262,4.64267,4.64267,0,0,1,4.64294-4.64262" transform="translate(-1020.14964 -514.82775)"/><path class="cls-1" d="M1069.36835,576.427a4.64293,4.64293,0,1,1,4.64293,4.64262A4.64268,4.64268,0,0,1,1069.36835,576.427Z" transform="translate(-1020.14964 -514.82775)"/><polyline class="cls-1" points="44.576 22.908 50.767 22.908 55.409 18.265 63.148 18.265"/><path class="cls-1" d="M1083.2973,564.04661h-7.73822l-4.64293-4.64417H1032.225a4.33712,4.33712,0,0,0-4.64293-4.64294v-12.381a4.33719,4.33719,0,0,0,4.64293-4.64294h29.40526" transform="translate(-1020.14964 -514.82775)"/><polyline class="cls-1" points="36.838 16.717 43.028 16.717 50.767 8.979"/><polyline class="cls-1" points="22.909 50.765 1.242 50.765 1.242 16.717 15.171 16.717"/><polyline class="cls-1" points="50.767 58.505 43.028 50.767 38.385 50.765"/><line class="cls-1" x1="63.14767" y1="33.74133" x2="53.8618" y2="33.74133"/><line class="cls-1" x1="29.09948" y1="50.76543" x2="26.00419" y2="50.76543"/><line class="cls-1" x1="35.29006" y1="50.76543" x2="32.19477" y2="50.76543"/></svg>