<svg id="Livello_1" data-name="Livello 1" xmlns="http://www.w3.org/2000/svg" viewBox="0 0 64.98406 65"><defs><style>.cls-1{fill:#1a1a1a;}</style></defs><path class="cls-1" d="M1080.94575,526.18268a.95866.95866,0,1,0-1.38654,1.32423,30.60211,30.60211,0,1,1-2.72457-2.52777.95855.95855,0,0,0,1.21694-1.48133,32.41567,32.41567,0,1,0,2.89417,2.68487Z" transform="translate(-1024.92521 -516.09547)"/><path class="cls-1" d="M1033.33542,546.76743a.961.961,0,0,0-.99174.9239,25.00826,25.00826,0,1,0,.45772-3.95641.95839.95839,0,1,0,1.88046.3714,23.18062,23.18062,0,0,1,36.50494-14.13944,23.16835,23.16835,0,1,1-36.92758,17.79284A.95834.95834,0,0,0,1033.33542,546.76743Z" transform="translate(-1024.92521 -516.09547)"/><path class="cls-1" d="M1052.86184,529.002a3.14373,3.14373,0,0,0-3.14015,3.14019v1.39695h-.01479a3.66015,3.66015,0,0,0-.31541,7.30665v15.527a3.66018,3.66018,0,0,0,.3298,7.30665v1.36915a3.14035,3.14035,0,0,0,6.28069,0v-1.3702l2.44687-.0005v1.3707a3.14035,3.14035,0,0,0,6.28069,0v-2.56487a7.38666,7.38666,0,0,0,2.17415-1.87748.9587.9587,0,0,0-1.51152-1.17973,5.5481,5.5481,0,0,1-2.03672,1.61264.95874.95874,0,0,0-.54793.92882l.00195.03368c.00139.01589.003.03222.003.04707v2.99977a1.22319,1.22319,0,1,1-2.44638,0V562.7191a.959.959,0,0,0-.95861-.95862l-4.364.001a.95823.95823,0,0,0-.95861.95811v2.32882a1.22317,1.22317,0,0,1-2.44633,0c0-2.47561.08279-2.64228-.28068-3.00575-.3561-.35605-.68536-.28068-1.64985-.28068a1.7429,1.7429,0,1,1,0-3.48579h.64222a.95905.95905,0,0,0,.95861-.95866V539.90017a.95857.95857,0,0,0-.95861-.95807h-.64326a1.74317,1.74317,0,0,1,0-3.48633c.33373,0,.65805-.00055.975-.00105a.95862.95862,0,0,0,.95667-.95861v-2.35458a1.22317,1.22317,0,0,1,2.44633,0v2.33221a.95893.95893,0,0,0,.96359.95862c1.49215-.00743,3.08256-.012,4.31888.04014a.9584.9584,0,0,0,.99876-.95757v-2.3734a1.22319,1.22319,0,0,1,2.44638,0c0,3.19409.00438,3.01911-.00693,3.13014a.958.958,0,0,0,.52665.95811c2.12794,1.05729,2.89368,3.00132,2.89368,5.41278a6.90482,6.90482,0,0,1-1.78034,5.0781.95886.95886,0,0,0,.11695,1.48382c1.93013,1.33,2.30805,3.22293,2.30805,6.04319a11.73842,11.73842,0,0,1-.17847,2.10262.95839.95839,0,1,0,1.88535.34564,13.63762,13.63762,0,0,0,.21025-2.44826c0-2.35951-.19347-4.99282-2.29714-6.9497a9.24444,9.24444,0,0,0,1.65243-5.65541c0-2.90105-.93923-5.33647-3.4134-6.8302v-2.671a3.14014,3.14014,0,0,0-6.28029,0v1.38555c-.79249-.01584-1.65792-.01743-2.44737-.01534v-1.37021A3.14364,3.14364,0,0,0,1052.86184,529.002Z" transform="translate(-1024.92521 -516.09547)"/><path class="cls-1" d="M1055.403,546.19868c1.039,0,1.96082.03173,2.7811.03173,2.5857,0,4.906-.31784,4.906-4.15768,0-3.78923-3.10542-3.78923-5.16048-3.78923-.75917,0-1.60472.02131-2.52667.02131a.95873.95873,0,0,0-.95861.95862v5.97679A.95882.95882,0,0,0,1055.403,546.19868Zm.95862-5.98261c.55394-.00648,1.0786-.01534,1.56805-.01534a6.57386,6.57386,0,0,1,2.656.34075c.19048.10411.58762.32029.58762,1.5314,0,1.92659-.419,2.241-2.98936,2.241-.54549,0-1.156-.01534-1.82245-.0248v-4.07306Z" transform="translate(-1024.92521 -516.09547)"/><path class="cls-1" d="M1054.44434,557.95277a.95869.95869,0,0,0,.95861.95861h3.81215c2.99868,0,4.51971-1.629,4.51971-4.84209,0-2.24394-.39874-3.54227-1.333-4.34124-1.3975-1.19507-3.53783-.89465-6.99881-.89465a.95872.95872,0,0,0-.95861.95861Zm1.91723-7.209c2.33624-.02819,4.11714-.13783,4.79442.44133.45124.38638.66154,1.30276.66154,2.88421,0,2.44633-.954,2.92486-2.60258,2.92486h-2.85349v-6.2504Z" transform="translate(-1024.92521 -516.09547)"/></svg>