<svg id="Livello_1" data-name="Livello 1" xmlns="http://www.w3.org/2000/svg" viewBox="0 0 39.99638 35.84783"><defs><style>.cls-1{fill:none;stroke:#1a1a1a;stroke-miterlimit:10;stroke-width:2px;}</style></defs><path class="cls-1" d="M717.68837,539.08932h0c-2.11867,0-6.8676.93292-7.544,3.27171-.30949,1.07008-1.58284,8.34149-1.58284,8.34149h18.25362s-1.27336-7.27141-1.58284-8.34149C724.54916,539.99876,719.78978,539.08932,717.68837,539.08932Z" transform="translate(-706.90214 -521.49238)"/><polygon class="cls-1" points="15.731 29.21 15.764 22.572 5.808 22.572 5.841 29.21 15.731 29.21"/><line class="cls-1" y1="29.21014" x2="25.72101" y2="29.21014"/><path class="cls-1" d="M738.43113,530.78948a3.40052,3.40052,0,0,1-3.31884-3.55564V526.048a3.32673,3.32673,0,1,1,6.63768,0v1.18582A3.40049,3.40049,0,0,1,738.43113,530.78948Z" transform="translate(-706.90214 -521.49238)"/><path class="cls-1" d="M734.28258,557.3402V539.08658a16.33631,16.33631,0,0,1-3.31884,1.65942,7.04034,7.04034,0,0,1-3.31884-1.65942,25.0893,25.0893,0,0,1-1.97447-1.71451,1.19636,1.19636,0,0,1,1.2585-1.9738c1.29692.48679,2.6043.97665,3.2051,1.19918,1.24456-1.29642,2.541-3.31884,5.808-3.31884h5.808c2.97309,0,4.14855,1.25435,4.14855,4.97826v4.97826c0,1.77973-.7094,2.48913-2.48913,2.48913h-.82971" transform="translate(-706.90214 -521.49238)"/><line class="cls-1" x1="31.52899" y1="24.23188" x2="31.52899" y2="35.84783"/><line class="cls-1" x1="35.67754" y1="16.76449" x2="35.67754" y2="35.84783"/><path class="cls-1" d="M717.68837,536.59745a3.40052,3.40052,0,0,1-3.31884-3.55564V531.856a3.32673,3.32673,0,1,1,6.63768,0v1.18582A3.40047,3.40047,0,0,1,717.68837,536.59745Z" transform="translate(-706.90214 -521.49238)"/></svg>