<svg id="Livello_1" data-name="Livello 1" xmlns="http://www.w3.org/2000/svg" viewBox="0 0 40.15357 39.16667"><defs><style>.cls-1{fill:none;stroke:#1a1a1a;stroke-miterlimit:10;stroke-width:2px;}</style></defs><path class="cls-1" d="M1063.17377,567.32324l-5.43312-8.061,9.447-6.1309,3.56626,5.54545c-.12164.34774-1.29875,1.15654-1.85067,1.63744a3.95107,3.95107,0,0,0-2.12489-.273c-.35686.04879-1.29941,1.469-1.48311,1.71476-.06554.04987-1.33168.89319-1.31567,1.17346.09227,1.61852,1.34463,3.01583,2.19807,2.74975a24.73721,24.73721,0,0,0,8.91574-5.4999,2.99377,2.99377,0,0,0,.30383-4.08666l-5.07417-8.18633c-1.492-2.0362-6.54957-3.00754-8.95191-3.00754-2.35089,0-7.60379,1.2181-9.06342,3.09648-1.29228,1.66307-4.15884,5.66609-5.32525,6.6639l-3.31129-1.83258c-.49575-.99266.19581-1.31484.06655-2.22445a13.68617,13.68617,0,0,0-3.03716-2.73033c-1.73343-.34831-3.2698,2.75165-2.64984,3.94652a9.29409,9.29409,0,0,0,1.64557,2.35305c5.80548,6.84727,5.93491,7.46831,7.78773,7.59451,1.99794.13607,5.60055-3.59182,6.178-4.39921V568.153" transform="translate(-1036.91056 -528.98629)"/><path class="cls-1" d="M1061.95915,529.98629c2.74941.00008,4.97818,1.63867,4.97809,6.22183s-2.22893,6.2215-4.97843,6.22141c-2.7494-.00008-4.97826-1.63867-4.97809-6.22183.00009-4.58315,2.22893-6.2215,4.97843-6.22141" transform="translate(-1036.91056 -528.98629)"/><line class="cls-1" x1="3.47605" y1="4.31884" x2="3.47605" y2="19.25362"/></svg>