<svg id="Livello_1" data-name="Livello 1" xmlns="http://www.w3.org/2000/svg" viewBox="0 0 38.99638 39.33696"><defs><style>.cls-1{fill:none;stroke:#1a1a1a;stroke-miterlimit:10;stroke-width:2px;}</style></defs><polyline class="cls-1" points="26.551 22.572 31.529 17.594 31.529 15.105 19.083 15.105 6.638 15.105 6.638 17.594 11.616 22.572"/><line class="cls-1" x1="11.61594" y1="25.06159" x2="11.61594" y2="18.42391"/><line class="cls-1" x1="26.55072" y1="25.06159" x2="26.55072" y2="18.42391"/><path class="cls-1" d="M1063.21017,544.00621v-3.31884c0-2.03154-5.05-3.31884-6.63768-3.31884s-6.63768,1.2873-6.63768,3.31884v3.31884" transform="translate(-1037.48915 -528.90114)"/><path class="cls-1" d="M1056.57249,537.36853a3.21932,3.21932,0,0,0,3.31884-3.2v-1.06726a3.321,3.321,0,0,0-6.63768,0v1.06726A3.21926,3.21926,0,0,0,1056.57249,537.36853Z" transform="translate(-1037.48915 -528.90114)"/><path class="cls-1" d="M1073.16669,567.2381v-1.57471a4.17528,4.17528,0,0,0-4.14855-4.23326v-.82971a9.203,9.203,0,0,1-12.44565-4.23327,4.1494,4.1494,0,1,1-8.2971,0,4.17529,4.17529,0,0,0-4.14856,4.23327v.82971a4.17528,4.17528,0,0,0-4.14855,4.23326v1.57471" transform="translate(-1037.48915 -528.90114)"/><path class="cls-1" d="M1048.27539,567.2381v-1.57479a4.17527,4.17527,0,0,0-4.14856-4.23318" transform="translate(-1037.48915 -528.90114)"/><path class="cls-1" d="M1056.57249,567.2381v-1.57479a4.1494,4.1494,0,1,0-8.2971,0v1.57479" transform="translate(-1037.48915 -528.90114)"/><path class="cls-1" d="M1064.86959,567.2381v-1.57479a4.1494,4.1494,0,1,0-8.2971,0v1.57479" transform="translate(-1037.48915 -528.90114)"/><path class="cls-1" d="M1069.01814,561.43013a4.17526,4.17526,0,0,0-4.14855,4.23318v1.57479" transform="translate(-1037.48915 -528.90114)"/><line class="cls-1" y1="38.33696" x2="38.99638" y2="38.33696"/></svg>