<svg id="Livello_1" data-name="Livello 1" xmlns="http://www.w3.org/2000/svg" viewBox="0 0 80.94867 65"><defs><style>.cls-1{fill:#fff;}</style></defs><path class="cls-1" d="M1064.9104,547.618a6.22975,6.22975,0,0,0,.50824-.593,6.306,6.306,0,0,0-5.05028-10.08253h-2.09054v-2.95782a1.32509,1.32509,0,1,0-2.65019,0v2.95782h-2.066v-2.95782a1.3251,1.3251,0,0,0-2.6502,0v2.95782h-2.88665a1.3251,1.3251,0,1,0,0,2.65019h2.88665v17.27351h-2.88665a1.3251,1.3251,0,1,0,0,2.65019h2.88665v2.95788a1.3251,1.3251,0,0,0,2.6502,0v-2.95788h2.066v2.95755a1.3251,1.3251,0,1,0,2.65019,0v-2.95755h3.73009a6.30226,6.30226,0,0,0,2.90249-11.89838Zm-4.542-8.02532a3.65585,3.65585,0,1,1,0,7.31169h-6.80669v-7.31169Zm1.63955,17.27351h-8.44624v-7.31162h8.44624a3.65581,3.65581,0,1,1,0,7.31162Z" transform="translate(-1016.51301 -516.06962)"/><path class="cls-1" d="M1056.99221,580.388a6.49557,6.49557,0,0,1-3.74366-1.18987,55.65967,55.65967,0,0,1-6.861-5.75139,1.325,1.325,0,1,1,1.855-1.8925,53.56007,53.56007,0,0,0,6.53234,5.47762,3.82193,3.82193,0,0,0,4.42621,0,53.55089,53.55089,0,0,0,6.53234-5.47762,1.325,1.325,0,0,1,1.855,1.8925,55.66358,55.66358,0,0,1-6.861,5.75139A6.48932,6.48932,0,0,1,1056.99221,580.388Z" transform="translate(-1016.51301 -516.06962)"/><path class="cls-1" d="M1082.75979,546.37605a1.32641,1.32641,0,0,1-1.2766-1.68254,70.449,70.449,0,0,0,2.48164-15.99306,1.3,1.3,0,0,0-.43509-1.032,1.80843,1.80843,0,0,0-1.43508-.441c-6.5485.79784-18.43946.79618-24.5363-8.20454a.688.688,0,0,0-1.141.00066c-6.09691,8.99973-17.99038,9.002-24.53564,8.20388a1.80977,1.80977,0,0,0-1.43541.441,1.29979,1.29979,0,0,0-.43516,1.03166,70.45231,70.45231,0,0,0,2.48164,15.99339,1.32494,1.32494,0,0,1-2.5518.7143,73.06561,73.06561,0,0,1-2.57745-16.59546,3.923,3.923,0,0,1,1.28435-3.09046,4.43406,4.43406,0,0,1,3.555-1.1252c5.94578.72728,16.71352.77518,22.02074-7.05992a3.338,3.338,0,0,1,5.52843-.00066c5.30781,7.8351,16.07489,7.78786,22.02133,7.06058a4.43437,4.43437,0,0,1,3.5547,1.1252,3.923,3.923,0,0,1,1.28435,3.09079,73.06948,73.06948,0,0,1-2.57738,16.59513A1.32555,1.32555,0,0,1,1082.75979,546.37605Z" transform="translate(-1016.51301 -516.06962)"/><circle class="cls-1" cx="61.33617" cy="16.88916" r="2.31892"/><circle class="cls-1" cx="40.47496" cy="10.83307" r="2.31892"/><circle class="cls-1" cx="19.61376" cy="16.88916" r="2.31892"/><circle class="cls-1" cx="40.47371" cy="55.18891" r="2.31892"/><path class="cls-1" d="M1021.52446,547.85745a5.01152,5.01152,0,1,1,5.01152-5.01152A5.01705,5.01705,0,0,1,1021.52446,547.85745Zm0-7.37284a2.36132,2.36132,0,1,0,2.36132,2.36132A2.36385,2.36385,0,0,0,1021.52446,540.48461Z" transform="translate(-1016.51301 -516.06962)"/><path class="cls-1" d="M1029.69567,581.06962a5.01149,5.01149,0,1,1,5.01152-5.01152A5.01705,5.01705,0,0,1,1029.69567,581.06962Zm0-7.37278a2.3613,2.3613,0,1,0,2.36132,2.36126A2.3638,2.3638,0,0,0,1029.69567,573.69684Z" transform="translate(-1016.51301 -516.06962)"/><path class="cls-1" d="M1023.5121,565.26452a5.01149,5.01149,0,1,1,5.01152-5.01152A5.01705,5.01705,0,0,1,1023.5121,565.26452Zm0-7.37277a2.36129,2.36129,0,1,0,2.36133,2.36125A2.36379,2.36379,0,0,0,1023.5121,557.89175Z" transform="translate(-1016.51301 -516.06962)"/><path class="cls-1" d="M1043.68684,566.53721a59.93954,59.93954,0,0,1-8.91141-15.15222l-.00258-.00484a1.39035,1.39035,0,0,0-1.22963-.81984h-10.69366V547.674a4.87721,4.87721,0,0,1-2.6502,0v4.21142a1.32515,1.32515,0,0,0,1.3251,1.3251h11.14983a63.18673,63.18673,0,0,0,2.75335,5.7174h-7.08748a4.87718,4.87718,0,0,1,0,2.65019h8.62705q1.38549,2.26523,2.955,4.40429h-10.22651a1.32521,1.32521,0,0,0-1.3251,1.3251V571.23a4.879,4.879,0,0,1,2.6502,0v-2.59745h11.04468a1.29337,1.29337,0,0,0,.16365-.0165,1.31917,1.31917,0,0,0,1.45774-2.07888Z" transform="translate(-1016.51301 -516.06962)"/><path class="cls-1" d="M1031.21489,546.37605a1.3264,1.3264,0,0,0,1.2766-1.68254,70.44563,70.44563,0,0,1-2.48164-15.99306,1.29975,1.29975,0,0,1,.4351-1.032,1.80827,1.80827,0,0,1,1.43508-.441c6.5485.79784,18.43946.79618,24.53629-8.20454a.68805.68805,0,0,1,1.141.00066c6.09683,8.99973,17.99038,9.002,24.53563,8.20388a1.80975,1.80975,0,0,1,1.43541.441,1.29976,1.29976,0,0,1,.43516,1.03166,70.45231,70.45231,0,0,1-2.48164,15.99339,1.32495,1.32495,0,0,0,2.55181.7143,73.06561,73.06561,0,0,0,2.57744-16.59546,3.923,3.923,0,0,0-1.28435-3.09046,4.434,4.434,0,0,0-3.555-1.1252c-5.94585.72728-16.71352.77518-22.02074-7.05992a3.338,3.338,0,0,0-5.52843-.00066c-5.30781,7.8351-16.07489,7.78786-22.02133,7.06058a4.43454,4.43454,0,0,0-3.55478,1.1252,3.92319,3.92319,0,0,0-1.28428,3.09079,73.0617,73.0617,0,0,0,2.57738,16.59513A1.32557,1.32557,0,0,0,1031.21489,546.37605Z" transform="translate(-1016.51301 -516.06962)"/><path class="cls-1" d="M1087.43871,542.84593a5.01149,5.01149,0,1,1,5.01145,5.01152A5.017,5.017,0,0,1,1087.43871,542.84593Zm2.65019,0a2.36129,2.36129,0,1,0,2.36126-2.36132A2.36385,2.36385,0,0,0,1090.0889,542.84593Z" transform="translate(-1016.51301 -516.06962)"/><path class="cls-1" d="M1079.26749,576.0581a5.01149,5.01149,0,1,1,5.01146,5.01152A5.017,5.017,0,0,1,1079.26749,576.0581Zm2.6502,0a2.36129,2.36129,0,1,0,2.36126-2.36126A2.36381,2.36381,0,0,0,1081.91769,576.0581Z" transform="translate(-1016.51301 -516.06962)"/><path class="cls-1" d="M1085.45106,560.253a5.01149,5.01149,0,1,1,5.01145,5.01152A5.017,5.017,0,0,1,1085.45106,560.253Zm2.6502,0a2.36129,2.36129,0,1,0,2.36125-2.36125A2.36381,2.36381,0,0,0,1088.10126,560.253Z" transform="translate(-1016.51301 -516.06962)"/><path class="cls-1" d="M1070.28778,566.53721a59.93747,59.93747,0,0,0,8.91141-15.15222l.00258-.00484a1.39107,1.39107,0,0,1,1.22969-.81984h10.6936V547.674a4.87721,4.87721,0,0,0,2.6502,0v4.21142a1.32516,1.32516,0,0,1-1.3251,1.3251h-11.14977a63.20279,63.20279,0,0,1-2.75335,5.7174h7.08741a4.879,4.879,0,0,0,0,2.65019h-8.627q-1.38538,2.26523-2.9549,4.40429h10.22644a1.32516,1.32516,0,0,1,1.32509,1.3251V571.23a4.879,4.879,0,0,0-2.65019,0v-2.59745h-11.04462a1.29466,1.29466,0,0,1-.16372-.0165,1.31919,1.31919,0,0,1-1.45773-2.07888Z" transform="translate(-1016.51301 -516.06962)"/></svg>