<svg id="Livello_1" data-name="Livello 1" xmlns="http://www.w3.org/2000/svg" viewBox="0 0 61.65408 65"><defs><style>.cls-1{fill:#1a1a1a;}</style></defs><path class="cls-1" d="M1073.403,579.1494h-34.15089c-2.66992,0-4.4032-2.553-3.03055-4.62087,4.06747-6.129,5.39359-10.74894,6.16761-21.49175a12.70485,12.70485,0,0,1,.0789-1.38251.96009.96009,0,1,0-1.90722-.2227,13.28871,13.28871,0,0,0-.08881,1.5011c-.74632,10.32345-2.00589,14.7415-5.85027,20.53413-2.21918,3.34387.419,7.60282,4.63034,7.60282h34.15144a.96011.96011,0,0,0-.00055-1.92022Z" transform="translate(-1026.14355 -516.06962)"/><path class="cls-1" d="M1077.2582,552.93267c-.01784-6.853-5.3286-12.59413-12.40073-14.0149v-5.00033l1.10735-5.61616a.9601.9601,0,0,0-1.88395-.37139l-.97451,4.94221h-8.45075c-.00249-.01285-2.94777-14.78413-2.94867-14.79748h14.316c-.03611.1959-1.19661,6.0763-1.1991,6.08776a.96012.96012,0,0,0,1.884.37154l1.19418-6.058a2.00263,2.00263,0,0,0-1.96092-2.40627h-14.15233a2.0035,2.0035,0,0,0-2.0025,1.99952c0,.29264-.21075-.85994,3.12131,15.85532v4.98539a15.47343,15.47343,0,0,0-11.23788,8.554.96008.96008,0,0,0,1.74762.79549,13.93589,13.93589,0,0,1,12.86546-7.75958h5.16436c7.65986,0,13.89143,5.59339,13.89143,12.46872,0,.02271.001.04612.00243.06889.77417,10.74291,2.10019,15.36289,6.16761,21.49135,1.38062,2.08075-.37881,4.62082-3.03055,4.62082H1077.261a.96006.96006,0,0,0,0,1.92012h1.21694c4.20535,0,6.85241-4.25387,4.63034-7.60282C1079.26369,567.67452,1078.00451,563.25647,1077.2582,552.93267Zm-14.32045-14.28816c-1.30869-.11208-7.05729-.08931-8.11019-.00194v-3.84931h8.11019Z" transform="translate(-1026.14355 -516.06962)"/><path class="cls-1" d="M1086.85605,530.05384c-3.46187-1.41035-5.05334-6.87428-5.45841-8.51526a1.16111,1.16111,0,0,0-2.2524,0c-.40522,1.64153-1.99653,7.10645-5.4575,8.51526a1.51858,1.51858,0,0,0-.09271,2.7677c1.699.839,4.676,3.43174,5.52291,11.3663a1.1608,1.1608,0,0,0,2.307.0005c.84654-7.93207,3.82395-10.52624,5.5234-11.3668A1.51845,1.51845,0,0,0,1086.85605,530.05384Zm-6.58424,9.60776c-1.19666-4.67492-3.27-7.0127-5.13562-8.17659,2.65015-1.46445,4.2445-4.58421,5.13562-7.05186.89117,2.46765,2.48548,5.58687,5.13618,7.05186C1083.54187,532.64994,1081.468,534.98813,1080.27181,539.6616Z" transform="translate(-1026.14355 -516.06962)"/><path class="cls-1" d="M1036.80087,552.60781a1.36455,1.36455,0,0,0-.08478-2.486c-2.38729-.97291-3.50506-4.82116-3.79077-5.97763a1.10566,1.10566,0,0,0-2.14487,0c-.28561,1.15647-1.40348,5.00577-3.79027,5.97763a1.36427,1.36427,0,0,0-.08438,2.48652c1.18027.58269,3.24972,2.39876,3.84875,8.013a1.10517,1.10517,0,0,0,2.19637,0C1033.5506,555.00905,1035.6206,553.192,1036.80087,552.60781Zm-4.94779,3.74514a9.25515,9.25515,0,0,0-3.22247-4.93827,9.50817,9.50817,0,0,0,3.22247-4.37595,9.51245,9.51245,0,0,0,3.22293,4.37645A9.25868,9.25868,0,0,0,1031.85308,556.353Z" transform="translate(-1026.14355 -516.06962)"/><path class="cls-1" d="M1056.14332,551.66309V556.89a.96013.96013,0,0,0,.96006.96c.907,0,1.70438.02784,2.42605.02784,1.53139,0,2.68541-.127,3.50012-.92783a3.73882,3.73882,0,0,0,.919-2.82967,3.30305,3.30305,0,0,0-.85451-2.47755c-1.18675-1.17181-3.15937-.93979-5.99063-.93979A.96017.96017,0,0,0,1056.14332,551.66309Zm1.92022.95313c3.50167-.04263,3.96486.006,3.96486,1.50415,0,1.946-.51375,1.8716-3.96486,1.818Z" transform="translate(-1026.14355 -516.06962)"/><path class="cls-1" d="M1054.88076,542.56659a2.87134,2.87134,0,0,0-2.86783,2.86832v1.10187a3.32276,3.32276,0,0,0-.2886,6.61989V566.517a3.3228,3.3228,0,0,0,.2886,6.61989v1.07757a2.86808,2.86808,0,1,0,5.73615,0V573.1378h1.8968v1.07667a2.86808,2.86808,0,1,0,5.73615,0v-2.17256c1.73119-1.01167,3.54924-3.0736,3.54924-7.27352,0-2.061-.16756-4.359-1.96833-6.0927a8.26626,8.26626,0,0,0,1.40442-4.93129c0-2.52722-.80589-4.69624-2.98533-6.04214v-2.26785a2.86808,2.86808,0,0,0-5.73615,0V546.522c-.55389-.00992-1.17335-.01291-1.8968-.01091v-1.07667A2.87165,2.87165,0,0,0,1054.88076,542.56659Zm5.68464,5.90281a.95983.95983,0,0,0,1.0002-.95916v-2.07543a.94823.94823,0,1,1,1.89646,0c0,2.79993.00349,2.63819-.00548,2.724a.95871.95871,0,0,0,.52771.96c1.84076.915,2.4636,2.55242,2.4636,4.62541a5.92143,5.92143,0,0,1-1.51944,4.353.95966.95966,0,0,0,.11646,1.48576c1.64451,1.13326,1.96629,2.75929,1.96629,5.18519,0,2.92889-1.01061,4.8902-3.0047,5.82949a.9602.9602,0,0,0-.54847.93237l.00144.0248.00244.03617v2.6239a.94821.94821,0,0,1-1.89641,0v-2.03723a.96016.96016,0,0,0-.96-.96006l-3.81658.00055a.96009.96009,0,0,0-.96.96V574.215a.94823.94823,0,0,1-1.89645,0v-2.03608a.958.958,0,0,0-.28119-.67883c-.34958-.35012-.68291-.28118-1.52895-.28068a1.403,1.403,0,0,1,0-2.80591h.56187a.95945.95945,0,0,0,.95951-.96006V552.22052a.9598.9598,0,0,0-.95951-.96h-.56237a1.40269,1.40269,0,1,1,0-2.80537q.43738,0,.85291-.001a.95964.95964,0,0,0,.95757-.96006v-2.05909a.94823.94823,0,0,1,1.89646,0v2.03971a.9603.9603,0,0,0,.965.96006C1058.45226,548.42582,1059.60081,548.4288,1060.5654,548.4694Z" transform="translate(-1026.14355 -516.06962)"/><path class="cls-1" d="M1058.6258,559.89522c-.48047.00792-.97749.01584-1.52242.01584a.95982.95982,0,0,0-.96006.96006v7.13763a.95991.95991,0,0,0,.96006.96006h3.33395c2.70325,0,4.07445-1.46589,4.07445-4.35653,0-1.8993-.31978-3.02458-1.06909-3.76193C1062.40816,559.83266,1060.90312,559.85751,1058.6258,559.89522Zm1.81169,7.15352h-2.37395v-5.225c2.04414-.0278,3.52144-.1071,4.03275.39575a3.66645,3.66645,0,0,1,.49592,2.39277C1062.59211,566.66041,1061.83483,567.04874,1060.43749,567.04874Z" transform="translate(-1026.14355 -516.06962)"/></svg>