<svg id="Livello_1" data-name="Livello 1" xmlns="http://www.w3.org/2000/svg" viewBox="0 0 65 65"><defs><style>.cls-1{fill:#fff;}</style></defs><path class="cls-1" d="M1089.48734,533.89223a17.81094,17.81094,0,0,0-35.59167-1.04847h-6.34375v-1.04843a5.24794,5.24794,0,0,0-5.242-5.242h-12.58064a5.24819,5.24819,0,0,0-5.242,5.24212v8.3871a5.24793,5.24793,0,0,0,5.242,5.242H1042.31a5.2479,5.2479,0,0,0,5.242-5.242v-5.242h6.34375a17.72308,17.72308,0,0,0,4.46721,10.77219l-10.19654,10.19549h-18.437a5.24806,5.24806,0,0,0-5.242,5.242V575.8276a5.248,5.248,0,0,0,5.242,5.242h18.87094a5.248,5.248,0,0,0,5.242-5.242V561.15021a5.247,5.247,0,0,0-3.1515-4.80164l9.15448-9.15448a17.72665,17.72665,0,0,0,10.7722,4.46716V558.005h-5.242a5.248,5.248,0,0,0-5.242,5.242v8.387a5.248,5.248,0,0,0,5.242,5.242h12.58059a5.248,5.248,0,0,0,5.242-5.242v-8.387a5.248,5.248,0,0,0-5.242-5.242h-5.242v-6.34374A17.82925,17.82925,0,0,0,1089.48734,533.89223Zm-54.86209,4.69569a2.06956,2.06956,0,0,1-.70239-1.55047v-2.09679a2.09908,2.09908,0,0,1,2.21106-2.09366,2.22047,2.22047,0,0,1,1.98249,2.27188v1.91857a2.06942,2.06942,0,0,1-.70239,1.55047l-.34594.31242v1.93013l3.61375,1.80735a1.03793,1.03793,0,0,1,.54523.68978h-10.4148a1.03678,1.03678,0,0,1,.54518-.68978l3.61374-1.80735v-1.93013Zm10.82978,1.59461a3.14031,3.14031,0,0,1-2.12719,2.96167,3.12737,3.12737,0,0,0-1.70882-2.382l-2.30232-1.15114a4.17962,4.17962,0,0,0,.89636-2.57374v-1.91852a4.28669,4.28669,0,0,0-3.9702-4.36659,4.19462,4.19462,0,0,0-4.41675,4.18837v2.09674a4.185,4.185,0,0,0,.89531,2.57374l-2.30232,1.15114a3.12607,3.12607,0,0,0-1.70882,2.382,3.14094,3.14094,0,0,1-2.12619-2.96167v-8.3871a3.14905,3.14905,0,0,1,3.14522-3.14522H1042.31a3.14905,3.14905,0,0,1,3.14523,3.14522Zm24.81534,29.857a2.06944,2.06944,0,0,1-.70239-1.55052v-2.09675a2.09894,2.09894,0,0,1,2.211-2.09366,2.22043,2.22043,0,0,1,1.98248,2.27189V568.489a2.06941,2.06941,0,0,1-.70239,1.55052l-.34589.31242V572.282l3.6137,1.80739a1.03774,1.03774,0,0,1,.54523.68979h-10.41465a1.03674,1.03674,0,0,1,.54518-.68979l3.61375-1.80739v-1.93008Zm10.82988-6.79249v8.38709a3.14021,3.14021,0,0,1-2.12718,2.96162,3.12735,3.12735,0,0,0-1.70882-2.382l-2.30232-1.15113a4.17971,4.17971,0,0,0,.89635-2.57374v-1.91857a4.28666,4.28666,0,0,0-3.9702-4.36654,4.19462,4.19462,0,0,0-4.41675,4.18831v2.0968a4.18507,4.18507,0,0,0,.89531,2.57374l-2.30232,1.15113a3.12594,3.12594,0,0,0-1.70882,2.382,3.14082,3.14082,0,0,1-2.12619-2.96162V563.247a3.14905,3.14905,0,0,1,3.14522-3.14522h12.58065A3.14914,3.14914,0,0,1,1081.10025,563.247Zm-43.50487,6.89948a3.1115,3.1115,0,0,1-1.57572-2.70593v-2.0968a3.15247,3.15247,0,0,1,1.02113-2.31906,3.1085,3.1085,0,0,1,2.40916-.81356,3.28648,3.28648,0,0,1,2.86,3.35064v1.87878a3.11168,3.11168,0,0,1-1.57572,2.70593l-.521.303v3.02358l5.07416,1.4509a3.13341,3.13341,0,0,1,2.26446,3.00052V578.973h-16.77418V577.9245a3.13368,3.13368,0,0,1,2.26446-3.00052l5.07416-1.4509V570.4495Zm14.15-8.99628V575.8276a3.141,3.141,0,0,1-2.0968,2.9523v-.8555a5.24111,5.24111,0,0,0-3.78469-5.01762l-3.55408-1.01481v-.27988a5.24764,5.24764,0,0,0,2.0968-4.17153v-1.87863a5.39233,5.39233,0,0,0-4.77648-5.43907,5.2421,5.2421,0,0,0-5.70751,5.2209v2.0968a5.24773,5.24773,0,0,0,2.09675,4.17153v.27993l-3.55407,1.01476a5.24106,5.24106,0,0,0-3.78465,5.01762v.8555a3.14089,3.14089,0,0,1-2.0968-2.9523V561.15021a3.14905,3.14905,0,0,1,3.14522-3.14522H1048.6A3.14912,3.14912,0,0,1,1051.74537,561.15021Zm4.1935-27.258a15.72586,15.72586,0,1,1,15.72586,15.72581A15.74368,15.74368,0,0,1,1055.93887,533.89223Z" transform="translate(-1024.48734 -516.06962)"/><path class="cls-1" d="M1072.7132,543.3276v-2.09675a4.19182,4.19182,0,0,0,2.7708-7.33877,4.19182,4.19182,0,0,0-2.7708-7.33877v-2.09665h-2.09679v2.0968h-2.09675v14.67739h2.09675v2.09675Zm-2.09679-14.67739h2.09679a2.09678,2.09678,0,0,1,0,4.19355h-2.09679Zm0,6.29035h2.09679a2.09675,2.09675,0,1,1,0,4.19349h-2.09679Z" transform="translate(-1024.48734 -516.06962)"/><path class="cls-1" d="M1085.29379,533.89223a13.629,13.629,0,1,0-13.62891,13.62907A13.6448,13.6448,0,0,0,1085.29379,533.89223Zm-25.16123,0a11.5323,11.5323,0,1,1,11.53232,11.53227A11.54592,11.54592,0,0,1,1060.13256,533.89223Z" transform="translate(-1024.48734 -516.06962)"/></svg>