<svg id="Livello_1" data-name="Livello 1" xmlns="http://www.w3.org/2000/svg" viewBox="0 0 67.00254 67"><defs><style>.cls-1,.cls-2,.cls-3{fill:none;stroke:#1a1a1a;stroke-width:2px;}.cls-1,.cls-2{stroke-linecap:round;}.cls-1,.cls-3{stroke-miterlimit:10;}.cls-2{stroke-linejoin:round;}</style></defs><path class="cls-1" d="M1038.61777,571.17832v-2.42223c0-4.54873-2.95368-8.95065-5.88772-12.42659v-3.52116l1.9223-.64082a2.35481,2.35481,0,0,0,1.6103-2.23416v-5.36787a5.89406,5.89406,0,0,0-7.0751-5.7713,6.055,6.055,0,0,0-4.70021,6.02494h0a6.9405,6.9405,0,0,0,1.16562,3.85l.02374.03561a6.941,6.941,0,0,1,1.16576,3.85v3.78625h0a11.66043,11.66043,0,0,0-2.34452,7.0077l-.00947,17.7159" transform="translate(-1023.48607 -515.06962)"/><path class="cls-1" d="M1089.48621,581.06468l-.00947-17.716a11.66073,11.66073,0,0,0-2.34452-7.0077h0v-3.78625a6.94206,6.94206,0,0,1,1.16576-3.85l.02374-.03561a6.94016,6.94016,0,0,0,1.16562-3.85h0a6.05481,6.05481,0,0,0-4.70035-6.02494,5.89363,5.89363,0,0,0-7.07511,5.7713v5.36787a2.355,2.355,0,0,0,1.61045,2.23416l1.92216.64082v3.52116c-2.9339,3.47594-5.88759,7.474-5.88759,12.02273v2.82609" transform="translate(-1023.48607 -515.06962)"/><path class="cls-2" d="M1054.16125,575.41745h29.67391v2.82608c-1.10372,1.10359-1.72235,1.72237-2.82608,2.82609H1032.9656c-1.10373-1.10372-1.72236-1.7225-2.82609-2.82609v-2.82608h19.78261" transform="translate(-1023.48607 -515.06962)"/><path class="cls-1" d="M1056.98734,538.67832h0a5.65225,5.65225,0,0,1,5.65217,5.65217v2.82609a5.65224,5.65224,0,0,1-5.65217,5.65217h0a5.65224,5.65224,0,0,1-5.65218-5.65217v-2.82609A5.65225,5.65225,0,0,1,1056.98734,538.67832Z" transform="translate(-1023.48607 -515.06962)"/><path class="cls-1" d="M1054.16125,552.80875v2.82609l-6.46566,2.771a5.65228,5.65228,0,0,0-3.42564,5.1952v7.5773" transform="translate(-1023.48607 -515.06962)"/><path class="cls-1" d="M1059.81343,552.80875v2.82609l6.46566,2.771a5.65228,5.65228,0,0,1,3.42564,5.1952v7.5773" transform="translate(-1023.48607 -515.06962)"/><line class="cls-1" x1="26.43605" y1="51.86957" x2="26.43605" y2="56.1087"/><line class="cls-1" x1="40.56648" y1="51.86957" x2="40.56648" y2="56.1087"/><polygon class="cls-2" points="41.98 17.957 49.045 25.022 49.045 17.957 66.001 17.957 66.001 1 1.001 1 1.001 17.957 17.958 17.957 17.958 25.022 25.023 17.957 41.98 17.957"/><line class="cls-3" x1="26.43605" y1="9.47826" x2="29.26214" y2="9.47826"/><line class="cls-3" x1="32.08822" y1="9.47826" x2="34.91431" y2="9.47826"/><line class="cls-3" x1="37.7404" y1="9.47826" x2="40.56648" y2="9.47826"/></svg>