<svg id="Livello_1" data-name="Livello 1" xmlns="http://www.w3.org/2000/svg" viewBox="0 0 69.95508 65.99951"><defs><style>.cls-1{fill:#1a1a1a;}</style></defs><polygon class="cls-1" points="69.955 50.75 46.796 50.75 46.796 48.75 67.955 48.75 67.955 2 2 2 2 42.364 0 42.364 0 0 69.955 0 69.955 50.75"/><path class="cls-1" d="M1045.169,541.20605a7.05328,7.05328,0,0,1-6.90918-7.33056v-2.11133a6.92131,6.92131,0,1,1,13.81835,0v2.11133A7.05328,7.05328,0,0,1,1045.169,541.20605Zm0-14.77294a5.07838,5.07838,0,0,0-4.90918,5.331v2.11133a4.92583,4.92583,0,1,0,9.81835,0v-2.11133A5.07837,5.07837,0,0,0,1045.169,526.43311Z" transform="translate(-1022.00977 -515.56982)"/><path class="cls-1" d="M1053.55566,557.93359h-2v-8.38671h9.86329c2.99609,0,4.56054-1.24805,4.85644-3.90918h-24.06055c-4.23632,0-6.38672,1.21582-6.38672,7.86328v4.43261h-2V553.501c0-7.00586,2.42969-9.86328,8.38672-9.86328h26.11328v1c0,4.45507-2.4541,6.90918-6.90917,6.90918h-7.86329Z" transform="translate(-1022.00977 -515.56982)"/><polygon class="cls-1" points="34.5 66 32.5 66 32.5 52.705 34.5 52.705 34.5 56.136 37.362 56.136 41.364 49.398 41.364 46.318 2 46.318 2 49.398 6.001 56.136 8.864 56.136 8.864 52.705 10.864 52.705 10.864 66 8.864 66 8.864 58.136 4.862 58.136 0 49.947 0 44.318 43.364 44.318 43.364 49.947 38.501 58.136 34.5 58.136 34.5 66"/></svg>